<?xml version="1.0" encoding="UTF-8"?>
<svg width="215px" height="278px" viewBox="0 0 215 278" version="1.1" xmlns="http://www.w3.org/2000/svg" xmlns:xlink="http://www.w3.org/1999/xlink">
    <title>蓝</title>
    <defs>
        <path d="M0,0 L0,79.2982934 L0,80.2382572 C0,111.177449 11.1517999,125.735782 40.3688182,125.735782 L40.3688182,125.735782 L174.542893,125.539145 L174.542893,150.640551 L40.3688182,150.466123 L39.522673,150.498924 L37.5816763,150.675744 C13.9125742,153.156517 0.260614102,166.743964 0.260614102,189.186239 L0.260614102,189.186239 L0.260614102,278 L69.1663363,278 L69.1663363,200.224065 L47.2742414,200.224065 L47.2737311,256.082717 L22.1489665,256.082717 L22.1528792,189.186239 L22.1738031,187.994628 C22.5245775,178.27381 27.3228029,173.749103 39.6939774,172.483859 L39.6939774,172.483859 L40.8082218,172.377597 L196.34908,172.38033 L196.34908,103.821746 L40.3688182,103.821746 L38.9182592,103.80637 C23.7861402,103.477332 19.9475259,98.0943223 21.3269774,81.7894878 L21.3269774,81.7894878 L21.3269774,80.9595452 L21.3269774,21.9142074 L193.104503,21.9142074 L193.104503,38.8173249 L47.2742414,38.8227918 L47.2742414,80.0792048 L69.1663363,80.0792048 L69.165826,60.7315323 L215,60.7371701 L215,0 L0,0 Z" id="path-1"></path>
    </defs>
    <g id="页面-1" stroke="none" stroke-width="1" fill="none" fill-rule="evenodd">
        <g id="logo" transform="translate(-237.000000, -151.000000)">
            <g id="蓝" transform="translate(237.000000, 151.000000)">
                <mask id="mask-2" fill="white">
                    <use xlink:href="#path-1"></use>
                </mask>
                <g id="Clip-2"></g>
                <polygon id="Fill-1" fill="#2068F8" mask="url(#mask-2)" points="-2 280 218 280 218 -3 -2 -3"></polygon>
            </g>
        </g>
    </g>
</svg>