<?xml version="1.0" encoding="UTF-8"?>
<svg width="612px" height="151px" viewBox="0 0 612 151" version="1.1" xmlns="http://www.w3.org/2000/svg" xmlns:xlink="http://www.w3.org/1999/xlink">
    <title>文</title>
    <g id="页面-1" stroke="none" stroke-width="1" fill="none" fill-rule="evenodd">
        <g id="logo" transform="translate(-237.000000, -627.000000)" fill-rule="nonzero">
            <g id="文" transform="translate(237.000000, 627.000000)">
                <path d="M167.498844,84.6666667 C182.717155,83 194.60299,80.3888889 203.156347,76.8333333 C212.042952,73.1666667 218.4302,68.0555556 222.31809,61.5 L222.31809,61.5 L243.812566,61.5 L243.812566,81.3333333 L267.973024,81.3333333 L267.973024,61.5 L283.302418,61.5 L283.302418,63 C283.302418,66.1111111 281.636179,67.6666667 278.303702,67.6666667 L278.303702,67.6666667 L274.138106,67.6666667 L274.138106,81.1666667 L288.467757,81.1666667 C301.353335,81.2777778 307.685041,74.9444444 307.462876,62.1666667 L307.462876,62.1666667 L307.462876,48.5 L267.973024,48.5 L267.973024,40.3333333 L285.801776,40.3333333 C292.022399,40.3333333 296.521243,38.8888889 299.298307,36 C302.075371,33.1111111 303.463903,28.6111111 303.463903,22.5 L303.463903,22.5 L303.463903,6 L267.973024,6 L267.973024,0 L243.812566,0 L243.812566,6 L228.316548,6 L228.316548,0 L204.15609,0 L204.15609,6 L166.499101,6 L166.499101,19.3333333 L204.15609,19.3333333 L204.15609,27 L166.665725,27 L166.665725,44.6666667 C166.665725,50.7777778 167.943174,55.1111111 170.498073,57.6666667 C173.052972,60.2222222 177.329651,61.5 183.328109,61.5 L183.328109,61.5 L195.49165,61.5 C189.715357,66.3888889 180.384421,69.8333333 167.498844,71.8333333 L167.498844,71.8333333 L167.498844,84.6666667 Z M243.812566,27 L228.316548,27 L228.316548,19.3333333 L243.812566,19.3333333 L243.812566,27 Z M274.971226,27 L267.973024,27 L267.973024,19.3333333 L280.136565,19.3333333 L280.136565,22 C280.136565,25.3333333 278.414785,27 274.971226,27 L274.971226,27 Z M243.812566,48.5 L227.150181,48.5 C227.705594,45.9444444 228.038842,43.2222222 228.149924,40.3333333 L228.149924,40.3333333 L243.812566,40.3333333 L243.812566,48.5 Z M203.156347,48.5 L194.658531,48.5 C192.43688,48.5 190.992806,48.2222222 190.326311,47.6666667 C189.43765,47 188.99332,45.5555556 188.99332,43.3333333 L188.99332,43.3333333 L188.99332,40.3333333 L204.15609,40.3333333 C204.045008,43.2222222 203.71176,45.9444444 203.156347,48.5 L203.156347,48.5 Z M205.988953,122 L205.988953,98.8333333 L267.139905,98.8333333 L267.139905,122 L294.63284,122 L294.63284,83.8333333 L178.496018,83.8333333 L178.496018,122 L205.988953,122 Z M308.295995,151 L308.295995,136.166667 C286.85706,133.5 271.860914,129.944444 263.307556,125.5 C255.420694,121.388889 251.477263,115.777778 251.477263,108.666667 L251.477263,108.666667 L251.477263,103.333333 L222.31809,103.333333 L222.31809,108.666667 C222.31809,115.888889 218.041411,121.611111 209.488053,125.833333 C200.379283,130.277778 184.883265,133.722222 163,136.166667 L163,136.166667 L163,151 C196.546935,150.333333 221.429429,144.555556 237.647484,133.666667 C246.311924,139.333333 255.753942,143.388889 265.973538,145.833333 C275.970969,148.277778 290.078454,150 308.295995,151 L308.295995,151 Z M428.239531,84.5 C436.459641,84.5 442.402558,82.5 446.068282,78.5 C449.734007,74.5 451.566869,67.9444444 451.566869,58.8333333 L451.566869,58.8333333 L451.566869,5.16666667 L321.100397,5.16666667 L321.100397,84.5 L428.239531,84.5 Z M372.253918,35.8333333 L347.760212,35.8333333 L347.760212,23.5 L372.253918,23.5 L372.253918,35.8333333 Z M424.907054,35.8333333 L400.579972,35.8333333 L400.579972,23.5 L424.907054,23.5 L424.907054,35.8333333 Z M372.253918,66.1666667 L347.760212,66.1666667 L347.760212,53.3333333 L372.253918,53.3333333 L372.253918,66.1666667 Z M416.409238,66.1666667 L400.579972,66.1666667 L400.579972,53.3333333 L424.907054,53.3333333 L424.907054,57.5 C424.907054,60.9444444 424.351641,63.2222222 423.240815,64.3333333 C422.018907,65.5555556 419.741714,66.1666667 416.409238,66.1666667 L416.409238,66.1666667 Z M333.930433,140.666667 C338.818066,126.444444 342.095002,109.5 343.76124,89.8333333 L343.76124,89.8333333 L320.767149,89.8333333 C318.878745,107.166667 314.824232,124.111111 308.603608,140.666667 L308.603608,140.666667 L333.930433,140.666667 Z M410.244155,148.666667 C417.464522,148.666667 422.740944,147 426.073421,143.666667 C429.405898,140.333333 431.072136,134.888889 431.072136,127.333333 L431.072136,127.333333 L431.072136,119.833333 L409.411036,119.833333 L409.411036,122 C409.411036,124.888889 408.855623,126.833333 407.744797,127.833333 C406.522889,128.944444 404.412321,129.5 401.413091,129.5 L401.413091,129.5 L383.750963,129.5 C380.196321,129.5 377.752505,128.833333 376.419514,127.5 C375.086523,126.166667 374.420028,123.666667 374.420028,120 L374.420028,120 L374.420028,90 L347.760212,90 L347.760212,125.833333 C347.760212,133.944444 349.537533,139.777778 353.092175,143.333333 C356.646818,146.888889 362.36757,148.666667 370.254432,148.666667 L370.254432,148.666667 L410.244155,148.666667 Z M462.397419,140.833333 C459.287108,122.166667 454.732722,105.222222 448.734264,90 L448.734264,90 L425.740173,90 C431.627549,107 435.459897,123.944444 437.237218,140.833333 L437.237218,140.833333 L462.397419,140.833333 Z M418.408724,116.5 C416.631403,107.833333 413.576632,99 409.244412,90 L409.244412,90 L386.250321,90 C389.360633,98.2222222 391.582284,107.055556 392.915275,116.5 L392.915275,116.5 L418.408724,116.5 Z M504.860866,24.8333333 C502.639215,15.5 499.751068,7.44444444 496.196426,0.666666667 L496.196426,0.666666667 L474.70195,0.666666667 C478.256592,8.88888889 480.478243,16.9444444 481.366904,24.8333333 L481.366904,24.8333333 L504.860866,24.8333333 Z M612,23.5 L612,6 L513.525306,6 L513.525306,23.5 L612,23.5 Z M501.361765,151 L501.361765,97.3333333 C505.02749,100 509.026462,102.5 513.358682,104.833333 L513.358682,104.833333 L513.358682,87.1666667 C508.359967,81.8333333 504.472077,77.1111111 501.695013,73 C506.027233,65.2222222 509.748499,55.7777778 512.858811,44.6666667 L512.858811,44.6666667 L512.858811,27.6666667 L463.8714,27.6666667 L463.8714,46 L487.032114,46 C484.69938,55.2222222 481.589069,63.1666667 477.701179,69.8333333 C474.479784,75.3888889 468.981198,82.6666667 461.205418,91.6666667 L461.205418,91.6666667 L461.205418,109 C466.315216,106.111111 471.647179,102.777778 477.201307,99 L477.201307,99 L477.201307,151 L501.361765,151 Z M584.840313,70.8333333 C591.949597,70.8333333 597.003854,69.3888889 600.003083,66.5 C603.002312,63.6111111 604.501927,58.8333333 604.501927,52.1666667 L604.501927,52.1666667 L604.501927,29 L520.690132,29 L520.690132,70.8333333 L584.840313,70.8333333 Z M572.010277,55.8333333 L546.516828,55.8333333 L546.516828,44 L578.508607,44 L578.508607,49.8333333 C578.508607,52.0555556 578.008735,53.6111111 577.008992,54.5 C576.009249,55.3888889 574.34301,55.8333333 572.010277,55.8333333 L572.010277,55.8333333 Z M586.673175,149.666667 C594.782202,149.666667 600.669578,147.666667 604.335303,143.666667 C607.778863,139.888889 609.500642,133.833333 609.500642,125.5 L609.500642,125.5 L609.500642,76.8333333 L515.524792,76.8333333 L515.524792,149.666667 L586.673175,149.666667 Z M585.340184,104.833333 L574.509634,104.833333 L574.509634,93.5 L585.340184,93.5 L585.340184,104.833333 Z M550.349176,104.833333 L539.518626,104.833333 L539.518626,93.5 L550.349176,93.5 L550.349176,104.833333 Z M550.349176,133 L539.518626,133 L539.518626,120.666667 L550.349176,120.666667 L550.349176,133 Z M577.008992,133 L574.509634,133 L574.509634,120.666667 L585.340184,120.666667 L585.340184,124 C585.340184,127 584.72923,129.222222 583.507322,130.666667 C582.174331,132.222222 580.008221,133 577.008992,133 L577.008992,133 Z" id="费思福" fill="#3D3D3D"></path>
                <path d="M117,0 L117,32.9903326 L37.8063482,32.987363 L37.8066169,43.4962573 L25.9183327,43.4962573 L25.9183327,21.0872669 L105.109888,21.0842972 L105.109888,11.9030658 L11.8279528,11.9030658 L11.8279528,43.9743811 L11.8279528,44.4252055 C11.0788228,53.2813629 13.1634235,56.2052724 21.3807166,56.3839878 L22.1684163,56.3923236 L106.871829,56.3923236 L106.871829,93.631071 L22.4070575,93.6295154 L21.8019214,93.6873 C15.083903,94.3745513 12.4782944,96.8322439 12.2878008,102.112181 L12.2764255,102.759388 L12.2742766,139.095259 L25.9180641,139.095259 L25.9183327,108.75481 L37.8066169,108.75481 L37.8066169,151 L0.388141361,151 L0.388141361,102.759388 C0.388141361,90.5695978 7.80161827,83.1893809 20.6548641,81.8418322 L21.7089008,81.7458155 L22.1684163,81.7280052 L94.9810696,81.7264496 L94.9810696,68.291856 L22.1684163,68.2953894 C6.30240506,68.2953894 -1.73696023,59.1206234 0.315490789,43.5732156 L0.385992412,43.0732274 L0.388141361,0 L117,0 Z" id="路径-5备份-2" fill="#2068F8"></path>
            </g>
        </g>
    </g>
</svg>